<mxfile host="app.diagrams.net" modified="2024-02-27T09:22:35.135Z" agent="Mozilla/5.0 (X11; Linux x86_64; rv:123.0) Gecko/20100101 Firefox/123.0" etag="CZ0AR7DxVDTR2pxflfeX" version="23.1.6" type="github">
  <diagram name="Page-1" id="7S4gwP7GIun9LXKWpcFd">
    <mxGraphModel dx="1434" dy="709" grid="1" gridSize="10" guides="1" tooltips="1" connect="1" arrows="1" fold="1" page="1" pageScale="1" pageWidth="1920" pageHeight="1200" math="0" shadow="0">
      <root>
        <mxCell id="0" />
        <mxCell id="1" parent="0" />
        <mxCell id="C1kWJ3NmRA7zD0mvkder-167" value="" style="rounded=1;whiteSpace=wrap;html=1;fillColor=#cce5ff;strokeColor=#36393d;" vertex="1" parent="1">
          <mxGeometry x="383.75" y="350" width="530" height="270" as="geometry" />
        </mxCell>
        <mxCell id="C1kWJ3NmRA7zD0mvkder-143" value="" style="rounded=1;whiteSpace=wrap;html=1;fillColor=#cce5ff;strokeColor=#36393d;" vertex="1" parent="1">
          <mxGeometry x="790" y="660" width="740" height="420" as="geometry" />
        </mxCell>
        <mxCell id="C1kWJ3NmRA7zD0mvkder-97" value="" style="rounded=1;whiteSpace=wrap;html=1;fillColor=#cce5ff;strokeColor=#36393d;" vertex="1" parent="1">
          <mxGeometry x="1160" y="350" width="760" height="270" as="geometry" />
        </mxCell>
        <mxCell id="C1kWJ3NmRA7zD0mvkder-92" value="" style="rounded=1;whiteSpace=wrap;html=1;fillColor=#cce5ff;strokeColor=#36393d;" vertex="1" parent="1">
          <mxGeometry x="585" y="20" width="945" height="290" as="geometry" />
        </mxCell>
        <mxCell id="C1kWJ3NmRA7zD0mvkder-2" value="0" style="rounded=0;whiteSpace=wrap;html=1;fillColor=#ffe6cc;strokeColor=#d79b00;fontStyle=1" vertex="1" parent="1">
          <mxGeometry x="850" y="40" width="80" height="30" as="geometry" />
        </mxCell>
        <mxCell id="C1kWJ3NmRA7zD0mvkder-3" value="epoch" style="rounded=0;whiteSpace=wrap;html=1;fillColor=#ffe6cc;strokeColor=#d79b00;fontStyle=1" vertex="1" parent="1">
          <mxGeometry x="930" y="40" width="80" height="30" as="geometry" />
        </mxCell>
        <mxCell id="C1kWJ3NmRA7zD0mvkder-4" value="01" style="rounded=0;whiteSpace=wrap;html=1;fillColor=#ffe6cc;strokeColor=#d79b00;fontStyle=1" vertex="1" parent="1">
          <mxGeometry x="1170" y="40" width="80" height="30" as="geometry" />
        </mxCell>
        <mxCell id="C1kWJ3NmRA7zD0mvkder-5" value="1" style="rounded=0;whiteSpace=wrap;html=1;fillColor=#ffe6cc;strokeColor=#d79b00;fontStyle=1" vertex="1" parent="1">
          <mxGeometry x="1090" y="40" width="80" height="30" as="geometry" />
        </mxCell>
        <mxCell id="C1kWJ3NmRA7zD0mvkder-6" value="age" style="rounded=0;whiteSpace=wrap;html=1;fillColor=#ffe6cc;strokeColor=#d79b00;fontStyle=1" vertex="1" parent="1">
          <mxGeometry x="1010" y="40" width="80" height="30" as="geometry" />
        </mxCell>
        <mxCell id="C1kWJ3NmRA7zD0mvkder-26" value="" style="html=1;shadow=0;dashed=0;align=center;verticalAlign=middle;shape=mxgraph.arrows2.arrow;dy=0.6;dx=40;direction=south;notch=0;fillColor=#d5e8d4;strokeColor=#82b366;" vertex="1" parent="1">
          <mxGeometry x="970" y="90" width="70" height="150" as="geometry" />
        </mxCell>
        <mxCell id="C1kWJ3NmRA7zD0mvkder-36" value="Thread ID" style="rounded=0;whiteSpace=wrap;html=1;fillColor=#ffe6cc;strokeColor=#d79b00;fontStyle=1" vertex="1" parent="1">
          <mxGeometry x="850" y="260" width="80" height="30" as="geometry" />
        </mxCell>
        <mxCell id="C1kWJ3NmRA7zD0mvkder-37" value="epoch" style="rounded=0;whiteSpace=wrap;html=1;fillColor=#ffe6cc;strokeColor=#d79b00;fontStyle=1" vertex="1" parent="1">
          <mxGeometry x="930" y="260" width="80" height="30" as="geometry" />
        </mxCell>
        <mxCell id="C1kWJ3NmRA7zD0mvkder-38" value="01" style="rounded=0;whiteSpace=wrap;html=1;fillColor=#ffe6cc;strokeColor=#d79b00;fontStyle=1" vertex="1" parent="1">
          <mxGeometry x="1170" y="260" width="80" height="30" as="geometry" />
        </mxCell>
        <mxCell id="C1kWJ3NmRA7zD0mvkder-39" value="1" style="rounded=0;whiteSpace=wrap;html=1;fillColor=#ffe6cc;strokeColor=#d79b00;fontStyle=1" vertex="1" parent="1">
          <mxGeometry x="1090" y="260" width="80" height="30" as="geometry" />
        </mxCell>
        <mxCell id="C1kWJ3NmRA7zD0mvkder-40" value="age" style="rounded=0;whiteSpace=wrap;html=1;fillColor=#ffe6cc;strokeColor=#d79b00;fontStyle=1" vertex="1" parent="1">
          <mxGeometry x="1010" y="260" width="80" height="30" as="geometry" />
        </mxCell>
        <mxCell id="C1kWJ3NmRA7zD0mvkder-42" value="" style="html=1;shadow=0;dashed=0;align=center;verticalAlign=middle;shape=mxgraph.arrows2.arrow;dy=0.6;dx=40;direction=south;notch=0;rotation=-180;fillColor=#f8cecc;strokeColor=#b85450;" vertex="1" parent="1">
          <mxGeometry x="1060" y="90" width="70" height="150" as="geometry" />
        </mxCell>
        <mxCell id="C1kWJ3NmRA7zD0mvkder-43" value="HashCode" style="rounded=0;whiteSpace=wrap;html=1;fillColor=#ffe6cc;strokeColor=#d79b00;fontStyle=1" vertex="1" parent="1">
          <mxGeometry x="450" y="470" width="160" height="30" as="geometry" />
        </mxCell>
        <mxCell id="C1kWJ3NmRA7zD0mvkder-45" value="01" style="rounded=0;whiteSpace=wrap;html=1;fillColor=#ffe6cc;strokeColor=#d79b00;fontStyle=1" vertex="1" parent="1">
          <mxGeometry x="770" y="470" width="80" height="30" as="geometry" />
        </mxCell>
        <mxCell id="C1kWJ3NmRA7zD0mvkder-46" value="1" style="rounded=0;whiteSpace=wrap;html=1;fillColor=#ffe6cc;strokeColor=#d79b00;fontStyle=1" vertex="1" parent="1">
          <mxGeometry x="690" y="470" width="80" height="30" as="geometry" />
        </mxCell>
        <mxCell id="C1kWJ3NmRA7zD0mvkder-47" value="age" style="rounded=0;whiteSpace=wrap;html=1;fillColor=#ffe6cc;strokeColor=#d79b00;fontStyle=1" vertex="1" parent="1">
          <mxGeometry x="610" y="470" width="80" height="30" as="geometry" />
        </mxCell>
        <mxCell id="C1kWJ3NmRA7zD0mvkder-48" value="pointer to lock record" style="rounded=0;whiteSpace=wrap;html=1;fillColor=#ffe6cc;strokeColor=#d79b00;fontStyle=1" vertex="1" parent="1">
          <mxGeometry x="1250" y="470" width="160" height="30" as="geometry" />
        </mxCell>
        <mxCell id="C1kWJ3NmRA7zD0mvkder-50" value="00" style="rounded=0;whiteSpace=wrap;html=1;fillColor=#ffe6cc;strokeColor=#d79b00;fontStyle=1" vertex="1" parent="1">
          <mxGeometry x="1570" y="470" width="80" height="30" as="geometry" />
        </mxCell>
        <mxCell id="C1kWJ3NmRA7zD0mvkder-51" value="1" style="rounded=0;whiteSpace=wrap;html=1;fillColor=#ffe6cc;strokeColor=#d79b00;fontStyle=1" vertex="1" parent="1">
          <mxGeometry x="1490" y="470" width="80" height="30" as="geometry" />
        </mxCell>
        <mxCell id="C1kWJ3NmRA7zD0mvkder-52" value="age" style="rounded=0;whiteSpace=wrap;html=1;fillColor=#ffe6cc;strokeColor=#d79b00;fontStyle=1" vertex="1" parent="1">
          <mxGeometry x="1410" y="470" width="80" height="30" as="geometry" />
        </mxCell>
        <mxCell id="C1kWJ3NmRA7zD0mvkder-53" value="" style="html=1;shadow=0;dashed=0;align=center;verticalAlign=middle;shape=mxgraph.arrows2.arrow;dy=0.6;dx=40;direction=south;notch=0;rotation=50;fillColor=#f8cecc;strokeColor=#b85450;" vertex="1" parent="1">
          <mxGeometry x="730" y="310" width="70" height="150" as="geometry" />
        </mxCell>
        <mxCell id="C1kWJ3NmRA7zD0mvkder-64" value="" style="html=1;shadow=0;dashed=0;align=center;verticalAlign=middle;shape=mxgraph.arrows2.arrow;dy=0.6;dx=40;direction=south;notch=0;rotation=-45;fillColor=#f8cecc;strokeColor=#b85450;" vertex="1" parent="1">
          <mxGeometry x="1310" y="310" width="70" height="150" as="geometry" />
        </mxCell>
        <mxCell id="C1kWJ3NmRA7zD0mvkder-65" value="pointer toheavyweight monitor" style="rounded=0;whiteSpace=wrap;html=1;fillColor=#ffe6cc;strokeColor=#d79b00;fontStyle=1" vertex="1" parent="1">
          <mxGeometry x="850" y="680" width="160" height="30" as="geometry" />
        </mxCell>
        <mxCell id="C1kWJ3NmRA7zD0mvkder-66" value="10" style="rounded=0;whiteSpace=wrap;html=1;fillColor=#ffe6cc;strokeColor=#d79b00;fontStyle=1" vertex="1" parent="1">
          <mxGeometry x="1170" y="680" width="80" height="30" as="geometry" />
        </mxCell>
        <mxCell id="C1kWJ3NmRA7zD0mvkder-67" value="1" style="rounded=0;whiteSpace=wrap;html=1;fillColor=#ffe6cc;strokeColor=#d79b00;fontStyle=1" vertex="1" parent="1">
          <mxGeometry x="1090" y="680" width="80" height="30" as="geometry" />
        </mxCell>
        <mxCell id="C1kWJ3NmRA7zD0mvkder-68" value="age" style="rounded=0;whiteSpace=wrap;html=1;fillColor=#ffe6cc;strokeColor=#d79b00;fontStyle=1" vertex="1" parent="1">
          <mxGeometry x="1010" y="680" width="80" height="30" as="geometry" />
        </mxCell>
        <mxCell id="C1kWJ3NmRA7zD0mvkder-69" value="" style="html=1;shadow=0;dashed=0;align=center;verticalAlign=middle;shape=mxgraph.arrows2.arrow;dy=0.6;dx=40;direction=south;notch=0;rotation=50;fillColor=#f8cecc;strokeColor=#b85450;" vertex="1" parent="1">
          <mxGeometry x="1210" y="520" width="70" height="150" as="geometry" />
        </mxCell>
        <mxCell id="C1kWJ3NmRA7zD0mvkder-70" value="" style="html=1;shadow=0;dashed=0;align=center;verticalAlign=middle;shape=mxgraph.arrows2.arrow;dy=0.6;dx=40;direction=south;notch=0;rotation=-45;fillColor=#e51400;fontColor=#ffffff;strokeColor=#B20000;" vertex="1" parent="1">
          <mxGeometry x="820" y="520" width="70" height="150" as="geometry" />
        </mxCell>
        <mxCell id="C1kWJ3NmRA7zD0mvkder-73" value="" style="html=1;shadow=0;dashed=0;align=center;verticalAlign=middle;shape=mxgraph.arrows2.uTurnArrow;dy=11;arrowHead=43;dx2=25;rotation=-90;fillColor=#e1d5e7;strokeColor=#9673a6;" vertex="1" parent="1">
          <mxGeometry x="1150" y="280" width="70" height="100" as="geometry" />
        </mxCell>
        <mxCell id="C1kWJ3NmRA7zD0mvkder-74" value="" style="html=1;shadow=0;dashed=0;align=center;verticalAlign=middle;shape=mxgraph.arrows2.uTurnArrow;dy=11;arrowHead=43;dx2=25;rotation=-90;fillColor=#e1d5e7;strokeColor=#9673a6;" vertex="1" parent="1">
          <mxGeometry x="1560" y="490" width="70" height="100" as="geometry" />
        </mxCell>
        <mxCell id="C1kWJ3NmRA7zD0mvkder-75" value="" style="html=1;shadow=0;dashed=0;align=center;verticalAlign=middle;shape=mxgraph.arrows2.uTurnArrow;dy=11;arrowHead=43;dx2=25;rotation=-90;fillColor=#e1d5e7;strokeColor=#9673a6;" vertex="1" parent="1">
          <mxGeometry x="1160" y="700" width="70" height="100" as="geometry" />
        </mxCell>
        <mxCell id="C1kWJ3NmRA7zD0mvkder-76" value="" style="html=1;shadow=0;dashed=0;align=center;verticalAlign=middle;shape=mxgraph.arrows2.arrow;dy=0.6;dx=40;direction=south;notch=0;rotation=135;fillColor=#dae8fc;strokeColor=#6c8ebf;" vertex="1" parent="1">
          <mxGeometry x="710" y="540" width="70" height="150" as="geometry" />
        </mxCell>
        <mxCell id="C1kWJ3NmRA7zD0mvkder-80" value="" style="html=1;shadow=0;dashed=0;align=center;verticalAlign=middle;shape=mxgraph.arrows2.arrow;dy=0.6;dx=40;direction=south;notch=0;fillColor=#e51400;fontColor=#ffffff;strokeColor=#B20000;" vertex="1" parent="1">
          <mxGeometry x="1010" y="300" width="70" height="350" as="geometry" />
        </mxCell>
        <mxCell id="C1kWJ3NmRA7zD0mvkder-78" value="" style="html=1;shadow=0;dashed=0;align=center;verticalAlign=middle;shape=mxgraph.arrows2.arrow;dy=0.6;dx=40;direction=south;notch=0;rotation=-90;fillColor=#d5e8d4;strokeColor=#82b366;" vertex="1" parent="1">
          <mxGeometry x="1000" y="350" width="70" height="210" as="geometry" />
        </mxCell>
        <mxCell id="C1kWJ3NmRA7zD0mvkder-72" value="" style="html=1;shadow=0;dashed=0;align=center;verticalAlign=middle;shape=mxgraph.arrows2.arrow;dy=0.6;dx=40;direction=south;notch=0;rotation=90;fillColor=#dae8fc;strokeColor=#6c8ebf;" vertex="1" parent="1">
          <mxGeometry x="1000" y="400" width="70" height="210" as="geometry" />
        </mxCell>
        <mxCell id="C1kWJ3NmRA7zD0mvkder-84" value="" style="shape=callout;whiteSpace=wrap;html=1;perimeter=calloutPerimeter;position2=0.75;rotation=90;fillColor=#f5f5f5;fontColor=#333333;strokeColor=#666666;" vertex="1" parent="1">
          <mxGeometry x="1190" y="70" width="65" height="210" as="geometry" />
        </mxCell>
        <mxCell id="C1kWJ3NmRA7zD0mvkder-85" value="冲突时重偏向：&lt;br&gt;条件：obj.epoch != clazz.epoch" style="text;strokeColor=none;align=left;fillColor=none;html=1;verticalAlign=middle;whiteSpace=wrap;rounded=0;fontStyle=1" vertex="1" parent="1">
          <mxGeometry x="1149" y="160" width="180" height="30" as="geometry" />
        </mxCell>
        <mxCell id="C1kWJ3NmRA7zD0mvkder-86" value="" style="shape=callout;whiteSpace=wrap;html=1;perimeter=calloutPerimeter;position2=0.75;rotation=90;fillColor=#f5f5f5;fontColor=#333333;strokeColor=#666666;" vertex="1" parent="1">
          <mxGeometry x="1420" y="225" width="65" height="210" as="geometry" />
        </mxCell>
        <mxCell id="C1kWJ3NmRA7zD0mvkder-87" value="冲突时升级：&lt;div&gt;同时会撤销重偏向&lt;br&gt;&lt;/div&gt;" style="text;strokeColor=none;align=left;fillColor=none;html=1;verticalAlign=middle;whiteSpace=wrap;rounded=0;fontStyle=1" vertex="1" parent="1">
          <mxGeometry x="1391" y="315" width="160" height="30" as="geometry" />
        </mxCell>
        <mxCell id="C1kWJ3NmRA7zD0mvkder-88" value="" style="shape=callout;whiteSpace=wrap;html=1;perimeter=calloutPerimeter;position2=0.46;rotation=-90;fillColor=#f5f5f5;fontColor=#333333;strokeColor=#666666;" vertex="1" parent="1">
          <mxGeometry x="625" y="225" width="65" height="210" as="geometry" />
        </mxCell>
        <mxCell id="C1kWJ3NmRA7zD0mvkder-89" value="不可重偏向时撤销" style="text;strokeColor=none;align=left;fillColor=none;html=1;verticalAlign=middle;whiteSpace=wrap;rounded=0;fontStyle=1" vertex="1" parent="1">
          <mxGeometry x="560" y="315" width="160" height="30" as="geometry" />
        </mxCell>
        <mxCell id="C1kWJ3NmRA7zD0mvkder-90" value="" style="shape=callout;whiteSpace=wrap;html=1;perimeter=calloutPerimeter;position2=0.75;rotation=90;fillColor=#f5f5f5;fontColor=#333333;strokeColor=#666666;" vertex="1" parent="1">
          <mxGeometry x="1349" y="510" width="65" height="210" as="geometry" />
        </mxCell>
        <mxCell id="C1kWJ3NmRA7zD0mvkder-91" value="冲突时升级" style="text;strokeColor=none;align=left;fillColor=none;html=1;verticalAlign=middle;whiteSpace=wrap;rounded=0;fontStyle=1" vertex="1" parent="1">
          <mxGeometry x="1320" y="600" width="160" height="30" as="geometry" />
        </mxCell>
        <mxCell id="C1kWJ3NmRA7zD0mvkder-96" value="&lt;font style=&quot;font-size: 20px;&quot;&gt;偏向锁&lt;br&gt;&lt;/font&gt;" style="text;strokeColor=none;align=left;fillColor=none;html=1;verticalAlign=middle;whiteSpace=wrap;rounded=0;fontStyle=1" vertex="1" parent="1">
          <mxGeometry x="620" y="40" width="90" height="30" as="geometry" />
        </mxCell>
        <mxCell id="C1kWJ3NmRA7zD0mvkder-120" value="" style="rounded=1;whiteSpace=wrap;html=1;rotation=90;fillColor=#ffcc99;strokeColor=#36393d;" vertex="1" parent="1">
          <mxGeometry x="625" y="100" width="265" height="130" as="geometry" />
        </mxCell>
        <mxCell id="C1kWJ3NmRA7zD0mvkder-121" value="null" style="rounded=0;whiteSpace=wrap;html=1;fontStyle=1" vertex="1" parent="1">
          <mxGeometry x="727.5" y="120" width="80" height="20" as="geometry" />
        </mxCell>
        <mxCell id="C1kWJ3NmRA7zD0mvkder-122" value="null" style="rounded=0;whiteSpace=wrap;html=1;fontStyle=1" vertex="1" parent="1">
          <mxGeometry x="727.5" y="140" width="80" height="20" as="geometry" />
        </mxCell>
        <mxCell id="C1kWJ3NmRA7zD0mvkder-123" value="null" style="rounded=0;whiteSpace=wrap;html=1;fillColor=#cdeb8b;strokeColor=#36393d;fontStyle=1" vertex="1" parent="1">
          <mxGeometry x="727.5" y="175" width="80" height="20" as="geometry" />
        </mxCell>
        <mxCell id="C1kWJ3NmRA7zD0mvkder-124" value="ref" style="rounded=0;whiteSpace=wrap;html=1;fillColor=#cdeb8b;strokeColor=#36393d;fontStyle=1" vertex="1" parent="1">
          <mxGeometry x="727.5" y="195" width="80" height="20" as="geometry" />
        </mxCell>
        <mxCell id="C1kWJ3NmRA7zD0mvkder-125" value="null" style="rounded=0;whiteSpace=wrap;html=1;fillColor=#cdeb8b;strokeColor=#36393d;fontStyle=1" vertex="1" parent="1">
          <mxGeometry x="727.5" y="230" width="80" height="20" as="geometry" />
        </mxCell>
        <mxCell id="C1kWJ3NmRA7zD0mvkder-126" value="ref" style="rounded=0;whiteSpace=wrap;html=1;fillColor=#cdeb8b;strokeColor=#36393d;fontStyle=1" vertex="1" parent="1">
          <mxGeometry x="727.5" y="250" width="80" height="20" as="geometry" />
        </mxCell>
        <mxCell id="C1kWJ3NmRA7zD0mvkder-127" value="Thread Stack" style="text;strokeColor=none;align=left;fillColor=none;html=1;verticalAlign=middle;whiteSpace=wrap;rounded=0;fontStyle=1" vertex="1" parent="1">
          <mxGeometry x="713.75" y="50" width="87.5" height="30" as="geometry" />
        </mxCell>
        <mxCell id="C1kWJ3NmRA7zD0mvkder-128" value="Lock Record" style="text;strokeColor=#d79b00;align=left;fillColor=#ffe6cc;html=1;verticalAlign=middle;whiteSpace=wrap;rounded=0;fontStyle=1" vertex="1" parent="1">
          <mxGeometry x="707.5" y="120" width="20" height="40" as="geometry" />
        </mxCell>
        <mxCell id="C1kWJ3NmRA7zD0mvkder-129" value="Lock Record" style="text;strokeColor=#d79b00;align=left;fillColor=#ffe6cc;html=1;verticalAlign=middle;whiteSpace=wrap;rounded=0;fontStyle=1" vertex="1" parent="1">
          <mxGeometry x="707.5" y="175" width="20" height="40" as="geometry" />
        </mxCell>
        <mxCell id="C1kWJ3NmRA7zD0mvkder-130" value="Lock Record" style="text;strokeColor=#d79b00;align=left;fillColor=#ffe6cc;html=1;verticalAlign=middle;whiteSpace=wrap;rounded=0;fontStyle=1" vertex="1" parent="1">
          <mxGeometry x="707.5" y="230" width="20" height="40" as="geometry" />
        </mxCell>
        <mxCell id="C1kWJ3NmRA7zD0mvkder-144" value="&lt;font style=&quot;font-size: 20px;&quot;&gt;重量级锁&lt;br&gt;&lt;/font&gt;" style="text;strokeColor=none;align=left;fillColor=none;html=1;verticalAlign=middle;whiteSpace=wrap;rounded=0;fontStyle=1" vertex="1" parent="1">
          <mxGeometry x="1370" y="680" width="90" height="30" as="geometry" />
        </mxCell>
        <mxCell id="C1kWJ3NmRA7zD0mvkder-148" value="" style="rounded=1;whiteSpace=wrap;html=1;fillColor=#eeeeee;strokeColor=#36393d;" vertex="1" parent="1">
          <mxGeometry x="1070" y="800" width="450" height="240" as="geometry" />
        </mxCell>
        <mxCell id="C1kWJ3NmRA7zD0mvkder-153" value="&lt;b&gt;ContentionList&lt;/b&gt;" style="rounded=1;whiteSpace=wrap;html=1;fillColor=#ffe6cc;strokeColor=#d79b00;" vertex="1" parent="1">
          <mxGeometry x="1080" y="840" width="90" height="30" as="geometry" />
        </mxCell>
        <mxCell id="C1kWJ3NmRA7zD0mvkder-155" value="&lt;font style=&quot;font-size: 20px;&quot;&gt;轻量级锁&lt;br&gt;&lt;/font&gt;" style="text;strokeColor=none;align=left;fillColor=none;html=1;verticalAlign=middle;whiteSpace=wrap;rounded=0;fontStyle=1" vertex="1" parent="1">
          <mxGeometry x="1660" y="410" width="90" height="30" as="geometry" />
        </mxCell>
        <mxCell id="C1kWJ3NmRA7zD0mvkder-156" value="" style="rounded=1;whiteSpace=wrap;html=1;rotation=90;fillColor=#ffcc99;strokeColor=#36393d;" vertex="1" parent="1">
          <mxGeometry x="1682.5" y="420" width="265" height="130" as="geometry" />
        </mxCell>
        <mxCell id="C1kWJ3NmRA7zD0mvkder-157" value="mark" style="rounded=0;whiteSpace=wrap;html=1;fillColor=#cdeb8b;strokeColor=#36393d;fontStyle=1" vertex="1" parent="1">
          <mxGeometry x="1785" y="440" width="80" height="20" as="geometry" />
        </mxCell>
        <mxCell id="C1kWJ3NmRA7zD0mvkder-158" value="ref" style="rounded=0;whiteSpace=wrap;html=1;fillColor=#cdeb8b;strokeColor=#36393d;fontStyle=1" vertex="1" parent="1">
          <mxGeometry x="1785" y="460" width="80" height="20" as="geometry" />
        </mxCell>
        <mxCell id="C1kWJ3NmRA7zD0mvkder-159" value="mark" style="rounded=0;whiteSpace=wrap;html=1;fillColor=#cdeb8b;strokeColor=#36393d;fontStyle=1" vertex="1" parent="1">
          <mxGeometry x="1785" y="495" width="80" height="20" as="geometry" />
        </mxCell>
        <mxCell id="C1kWJ3NmRA7zD0mvkder-160" value="ref" style="rounded=0;whiteSpace=wrap;html=1;fillColor=#cdeb8b;strokeColor=#36393d;fontStyle=1" vertex="1" parent="1">
          <mxGeometry x="1785" y="515" width="80" height="20" as="geometry" />
        </mxCell>
        <mxCell id="C1kWJ3NmRA7zD0mvkder-161" value="mark" style="rounded=0;whiteSpace=wrap;html=1;fillColor=#cdeb8b;strokeColor=#36393d;fontStyle=1" vertex="1" parent="1">
          <mxGeometry x="1785" y="550" width="80" height="20" as="geometry" />
        </mxCell>
        <mxCell id="C1kWJ3NmRA7zD0mvkder-162" value="ref" style="rounded=0;whiteSpace=wrap;html=1;fillColor=#cdeb8b;strokeColor=#36393d;fontStyle=1" vertex="1" parent="1">
          <mxGeometry x="1785" y="570" width="80" height="20" as="geometry" />
        </mxCell>
        <mxCell id="C1kWJ3NmRA7zD0mvkder-163" value="Thread Stack" style="text;strokeColor=none;align=left;fillColor=none;html=1;verticalAlign=middle;whiteSpace=wrap;rounded=0;fontStyle=1" vertex="1" parent="1">
          <mxGeometry x="1771.25" y="370" width="87.5" height="30" as="geometry" />
        </mxCell>
        <mxCell id="C1kWJ3NmRA7zD0mvkder-164" value="Lock Record" style="text;strokeColor=#d79b00;align=left;fillColor=#ffe6cc;html=1;verticalAlign=middle;whiteSpace=wrap;rounded=0;fontStyle=1" vertex="1" parent="1">
          <mxGeometry x="1765" y="440" width="20" height="40" as="geometry" />
        </mxCell>
        <mxCell id="C1kWJ3NmRA7zD0mvkder-165" value="Lock Record" style="text;strokeColor=#d79b00;align=left;fillColor=#ffe6cc;html=1;verticalAlign=middle;whiteSpace=wrap;rounded=0;fontStyle=1" vertex="1" parent="1">
          <mxGeometry x="1765" y="495" width="20" height="40" as="geometry" />
        </mxCell>
        <mxCell id="C1kWJ3NmRA7zD0mvkder-166" value="Lock Record" style="text;strokeColor=#d79b00;align=left;fillColor=#ffe6cc;html=1;verticalAlign=middle;whiteSpace=wrap;rounded=0;fontStyle=1" vertex="1" parent="1">
          <mxGeometry x="1765" y="550" width="20" height="40" as="geometry" />
        </mxCell>
        <mxCell id="C1kWJ3NmRA7zD0mvkder-168" value="&lt;font style=&quot;font-size: 20px;&quot;&gt;无锁&lt;/font&gt;" style="text;strokeColor=none;align=left;fillColor=none;html=1;verticalAlign=middle;whiteSpace=wrap;rounded=0;fontStyle=1" vertex="1" parent="1">
          <mxGeometry x="430" y="370" width="90" height="30" as="geometry" />
        </mxCell>
        <mxCell id="C1kWJ3NmRA7zD0mvkder-169" value="&lt;b&gt;EntryList&lt;/b&gt;" style="rounded=1;whiteSpace=wrap;html=1;fillColor=#ffe6cc;strokeColor=#d79b00;" vertex="1" parent="1">
          <mxGeometry x="1250" y="840" width="90" height="30" as="geometry" />
        </mxCell>
        <mxCell id="C1kWJ3NmRA7zD0mvkder-170" value="&lt;b&gt;OnDeck&lt;/b&gt;" style="rounded=1;whiteSpace=wrap;html=1;fillColor=#cdeb8b;strokeColor=#36393d;" vertex="1" parent="1">
          <mxGeometry x="1415" y="840" width="90" height="30" as="geometry" />
        </mxCell>
        <mxCell id="C1kWJ3NmRA7zD0mvkder-171" value="&lt;b&gt;Owner&lt;/b&gt;" style="rounded=1;whiteSpace=wrap;html=1;fillColor=#e51400;fontColor=#ffffff;strokeColor=#B20000;" vertex="1" parent="1">
          <mxGeometry x="1415" y="940" width="90" height="30" as="geometry" />
        </mxCell>
        <mxCell id="C1kWJ3NmRA7zD0mvkder-172" value="&lt;b&gt;WaitSet&lt;/b&gt;" style="rounded=1;whiteSpace=wrap;html=1;fillColor=#dae8fc;strokeColor=#6c8ebf;" vertex="1" parent="1">
          <mxGeometry x="1250" y="940" width="90" height="30" as="geometry" />
        </mxCell>
        <mxCell id="C1kWJ3NmRA7zD0mvkder-176" value="" style="html=1;shadow=0;dashed=0;align=center;verticalAlign=middle;shape=mxgraph.arrows2.arrow;dy=0.67;dx=20;notch=0;" vertex="1" parent="1">
          <mxGeometry x="1183.75" y="845" width="56.25" height="20" as="geometry" />
        </mxCell>
        <mxCell id="C1kWJ3NmRA7zD0mvkder-177" value="" style="html=1;shadow=0;dashed=0;align=center;verticalAlign=middle;shape=mxgraph.arrows2.arrow;dy=0.67;dx=20;notch=0;" vertex="1" parent="1">
          <mxGeometry x="1350" y="845" width="56.25" height="20" as="geometry" />
        </mxCell>
        <mxCell id="C1kWJ3NmRA7zD0mvkder-178" value="" style="html=1;shadow=0;dashed=0;align=center;verticalAlign=middle;shape=mxgraph.arrows2.arrow;dy=0.67;dx=20;notch=0;rotation=90;" vertex="1" parent="1">
          <mxGeometry x="1431.88" y="895" width="56.25" height="20" as="geometry" />
        </mxCell>
        <mxCell id="C1kWJ3NmRA7zD0mvkder-179" value="" style="html=1;shadow=0;dashed=0;align=center;verticalAlign=middle;shape=mxgraph.arrows2.arrow;dy=0.67;dx=20;notch=0;rotation=-180;" vertex="1" parent="1">
          <mxGeometry x="1350" y="945" width="56.25" height="20" as="geometry" />
        </mxCell>
        <mxCell id="C1kWJ3NmRA7zD0mvkder-180" value="" style="html=1;shadow=0;dashed=0;align=center;verticalAlign=middle;shape=mxgraph.arrows2.arrow;dy=0.56;dx=21.45;notch=0;rotation=-180;direction=south;" vertex="1" parent="1">
          <mxGeometry x="1285" y="876.7099999999999" width="20" height="56.57" as="geometry" />
        </mxCell>
        <mxCell id="C1kWJ3NmRA7zD0mvkder-209" style="edgeStyle=orthogonalEdgeStyle;rounded=0;orthogonalLoop=1;jettySize=auto;html=1;entryX=0.5;entryY=1;entryDx=0;entryDy=0;labelBackgroundColor=#000000;fontColor=#000000;fontSize=20;labelBorderColor=default;" edge="1" parent="1" source="C1kWJ3NmRA7zD0mvkder-182" target="C1kWJ3NmRA7zD0mvkder-171">
          <mxGeometry relative="1" as="geometry">
            <Array as="points">
              <mxPoint x="930" y="1010" />
              <mxPoint x="1460" y="1010" />
            </Array>
          </mxGeometry>
        </mxCell>
        <mxCell id="C1kWJ3NmRA7zD0mvkder-182" value="&lt;b&gt;自旋&lt;br&gt;&lt;/b&gt;" style="strokeWidth=2;html=1;shape=mxgraph.flowchart.decision;whiteSpace=wrap;" vertex="1" parent="1">
          <mxGeometry x="880" y="820" width="100" height="100" as="geometry" />
        </mxCell>
        <mxCell id="C1kWJ3NmRA7zD0mvkder-183" value="" style="html=1;shadow=0;dashed=0;align=center;verticalAlign=middle;shape=mxgraph.arrows2.arrow;dy=0.6;dx=40;direction=south;notch=0;rotation=50;fillColor=#f8cecc;strokeColor=#b85450;" vertex="1" parent="1">
          <mxGeometry x="960" y="695" width="70" height="150" as="geometry" />
        </mxCell>
        <mxCell id="C1kWJ3NmRA7zD0mvkder-186" value="" style="shape=callout;whiteSpace=wrap;html=1;perimeter=calloutPerimeter;position2=0.46;rotation=-90;fillColor=#f5f5f5;fontColor=#333333;strokeColor=#666666;" vertex="1" parent="1">
          <mxGeometry x="521.25" y="601.25" width="42.5" height="140" as="geometry" />
        </mxCell>
        <mxCell id="C1kWJ3NmRA7zD0mvkder-187" value="冲突时自旋" style="text;strokeColor=none;align=left;fillColor=none;html=1;verticalAlign=middle;whiteSpace=wrap;rounded=0;fontStyle=1" vertex="1" parent="1">
          <mxGeometry x="480" y="660" width="70" height="30" as="geometry" />
        </mxCell>
        <mxCell id="C1kWJ3NmRA7zD0mvkder-188" value="" style="shape=callout;whiteSpace=wrap;html=1;perimeter=calloutPerimeter;position2=0.46;rotation=-90;fillColor=#f5f5f5;fontColor=#333333;strokeColor=#666666;" vertex="1" parent="1">
          <mxGeometry x="871.25" y="680" width="42.5" height="140" as="geometry" />
        </mxCell>
        <mxCell id="C1kWJ3NmRA7zD0mvkder-189" value="冲突时自旋" style="text;strokeColor=none;align=left;fillColor=none;html=1;verticalAlign=middle;whiteSpace=wrap;rounded=0;fontStyle=1" vertex="1" parent="1">
          <mxGeometry x="830" y="738.75" width="70" height="30" as="geometry" />
        </mxCell>
        <mxCell id="C1kWJ3NmRA7zD0mvkder-192" value="" style="html=1;shadow=0;dashed=0;align=center;verticalAlign=middle;shape=mxgraph.arrows2.jumpInArrow;dy=14.37;dx=43.23;arrowHead=55;rotation=45;" vertex="1" parent="1">
          <mxGeometry x="1020" y="750" width="120" height="176.57" as="geometry" />
        </mxCell>
        <mxCell id="C1kWJ3NmRA7zD0mvkder-210" value="&lt;b&gt;Success&lt;/b&gt;" style="html=1;shadow=0;dashed=0;align=center;verticalAlign=middle;shape=mxgraph.arrows2.arrow;dy=0;dx=10;notch=10;" vertex="1" parent="1">
          <mxGeometry x="1090" y="980" width="100" height="30" as="geometry" />
        </mxCell>
        <mxCell id="C1kWJ3NmRA7zD0mvkder-212" value="Fail" style="text;strokeColor=none;align=left;fillColor=none;html=1;verticalAlign=middle;whiteSpace=wrap;rounded=0;fontStyle=1" vertex="1" parent="1">
          <mxGeometry x="1125" y="800" width="35" height="30" as="geometry" />
        </mxCell>
        <mxCell id="C1kWJ3NmRA7zD0mvkder-213" value="" style="html=1;shadow=0;dashed=0;align=center;verticalAlign=middle;shape=mxgraph.arrows2.uTurnArrow;dy=11;arrowHead=43;dx2=25;rotation=90;fillColor=#dae8fc;strokeColor=#6c8ebf;" vertex="1" parent="1">
          <mxGeometry x="870" y="170" width="70" height="100" as="geometry" />
        </mxCell>
        <mxCell id="C1kWJ3NmRA7zD0mvkder-214" value="&lt;font style=&quot;font-size: 20px;&quot;&gt;Monitor&lt;br&gt;&lt;/font&gt;" style="text;strokeColor=none;align=left;fillColor=none;html=1;verticalAlign=middle;whiteSpace=wrap;rounded=0;fontStyle=1" vertex="1" parent="1">
          <mxGeometry x="1085" y="903.28" width="90" height="30" as="geometry" />
        </mxCell>
        <mxCell id="C1kWJ3NmRA7zD0mvkder-215" value="" style="shape=callout;whiteSpace=wrap;html=1;perimeter=calloutPerimeter;position2=0.75;rotation=90;fillColor=#f5f5f5;fontColor=#333333;strokeColor=#666666;" vertex="1" parent="1">
          <mxGeometry x="843.5" y="62.5" width="65" height="135" as="geometry" />
        </mxCell>
        <mxCell id="C1kWJ3NmRA7zD0mvkder-216" value="偏向锁解锁" style="text;strokeColor=none;align=left;fillColor=none;html=1;verticalAlign=middle;whiteSpace=wrap;rounded=0;fontStyle=1" vertex="1" parent="1">
          <mxGeometry x="840" y="115" width="100" height="30" as="geometry" />
        </mxCell>
        <mxCell id="C1kWJ3NmRA7zD0mvkder-218" value="&lt;font color=&quot;#000099&quot;&gt;解锁&lt;/font&gt;" style="text;strokeColor=none;align=left;fillColor=none;html=1;verticalAlign=middle;whiteSpace=wrap;rounded=0;fontStyle=1;fontColor=#FF8000;" vertex="1" parent="1">
          <mxGeometry x="883.75" y="185" width="30" height="30" as="geometry" />
        </mxCell>
        <mxCell id="C1kWJ3NmRA7zD0mvkder-219" value="&lt;font color=&quot;#000099&quot;&gt;取锁&lt;/font&gt;" style="text;strokeColor=none;align=left;fillColor=none;html=1;verticalAlign=middle;whiteSpace=wrap;rounded=0;fontStyle=1;fontColor=#FF8000;" vertex="1" parent="1">
          <mxGeometry x="990" y="150" width="30" height="30" as="geometry" />
        </mxCell>
        <mxCell id="C1kWJ3NmRA7zD0mvkder-220" value="&lt;font color=&quot;#000099&quot;&gt;重入&lt;br&gt;&lt;/font&gt;" style="text;strokeColor=none;align=left;fillColor=none;html=1;verticalAlign=middle;whiteSpace=wrap;rounded=0;fontStyle=1;fontColor=#FF8000;" vertex="1" parent="1">
          <mxGeometry x="1175" y="340" width="30" height="30" as="geometry" />
        </mxCell>
        <mxCell id="C1kWJ3NmRA7zD0mvkder-221" value="&lt;font color=&quot;#000099&quot;&gt;冲突&lt;/font&gt;" style="text;strokeColor=none;align=left;fillColor=none;html=1;verticalAlign=middle;whiteSpace=wrap;rounded=0;fontStyle=1;fontColor=#FF8000;" vertex="1" parent="1">
          <mxGeometry x="1080" y="150" width="30" height="30" as="geometry" />
        </mxCell>
      </root>
    </mxGraphModel>
  </diagram>
</mxfile>
